<?xml version="1.0" encoding="UTF-8"?>
<!DOCTYPE svg PUBLIC "-//W3C//DTD SVG 1.1//EN"
    "http://www.w3.org/Graphics/SVG/1.1/DTD/svg11.dtd"><svg font-size="1" viewBox="0.0 0.0 400.0 400.0" stroke="rgb(0,0,0)" xmlns="http://www.w3.org/2000/svg" width="400.0000" stroke-opacity="1" height="400.0000" version="1.1" xmlns:xlink="http://www.w3.org/1999/xlink"><defs></defs><g stroke-linejoin="miter" fill-opacity="1.0" fill="rgb(128,128,128)" stroke="rgb(0,0,0)" stroke-linecap="butt" opacity="0.15" stroke-miterlimit="10.0" stroke-opacity="1.0" stroke-width="0.0"><path d="M 400.0000,392.0000 v -384.0000 c 0.0000,-4.4183 -3.5817,-8.0000 -8.0000 -8.0000h -384.0000 c -4.4183,-0.0000 -8.0000,3.5817 -8.0000 8.0000v 384.0000 c -0.0000,4.4183 3.5817,8.0000 8.0000 8.0000h 384.0000 c 4.4183,0.0000 8.0000,-3.5817 8.0000 -8.0000Z"/></g><a xlink:href="https://en.wikipedia.org/wiki/Atomic_orbital" class="svg_orbit"><g stroke-linejoin="miter" fill-opacity="0.0" fill="rgb(0,0,0)" stroke="rgb(0,0,0)" stroke-linecap="butt" stroke-miterlimit="10.0" stroke-opacity="1.0" pointer-events="stroke" stroke-width="1.6"><path d="M 360.0000,200.0000 c 0.0000,-88.3656 -71.6344,-160.0000 -160.0000 -160.0000c -88.3656,-0.0000 -160.0000,71.6344 -160.0000 160.0000c -0.0000,88.3656 71.6344,160.0000 160.0000 160.0000c 88.3656,0.0000 160.0000,-71.6344 160.0000 -160.0000Z"/></g></a><a xlink:href="https://en.wikipedia.org/wiki/Electron" class="svg_electron"><g stroke-linejoin="miter" fill-opacity="1.0" fill="rgb(0,0,255)" stroke="rgb(0,0,0)" stroke-linecap="butt" stroke-miterlimit="10.0" stroke-opacity="1.0" stroke-width="0.0"><path d="M 94.8629,86.8629 c 0.0000,-4.4183 -3.5817,-8.0000 -8.0000 -8.0000c -4.4183,-0.0000 -8.0000,3.5817 -8.0000 8.0000c -0.0000,4.4183 3.5817,8.0000 8.0000 8.0000c 4.4183,0.0000 8.0000,-3.5817 8.0000 -8.0000Z"/></g></a><a xlink:href="https://en.wikipedia.org/wiki/Proton" class="svg_proton"><g stroke-linejoin="miter" fill-opacity="1.0" fill="rgb(255,0,0)" stroke="rgb(0,0,0)" stroke-linecap="butt" stroke-miterlimit="10.0" stroke-opacity="1.0" stroke-width="0.0"><path d="M 224.0000,200.0000 c 0.0000,-13.2548 -10.7452,-24.0000 -24.0000 -24.0000c -13.2548,-0.0000 -24.0000,10.7452 -24.0000 24.0000c -0.0000,13.2548 10.7452,24.0000 24.0000 24.0000c 13.2548,0.0000 24.0000,-10.7452 24.0000 -24.0000Z"/></g></a></svg>
