<?xml version="1.0" encoding="UTF-8"?>
<!DOCTYPE svg PUBLIC "-//W3C//DTD SVG 1.1//EN"
    "http://www.w3.org/Graphics/SVG/1.1/DTD/svg11.dtd"><svg font-size="1" viewBox="0.0 0.0 300.0 300.0" stroke="rgb(0,0,0)" xmlns="http://www.w3.org/2000/svg" width="300.0000" stroke-opacity="1" height="300.0000" version="1.1" xmlns:xlink="http://www.w3.org/1999/xlink"><defs></defs><g stroke-linejoin="miter" fill-opacity="1.0" fill="rgb(128,128,128)" stroke="rgb(0,0,0)" stroke-linecap="butt" opacity="0.15" stroke-miterlimit="10.0" stroke-opacity="1.0" stroke-width="0.0"><path d="M 300.0000,295.7143 v -291.4286 c 0.0000,-2.3669 -1.9188,-4.2857 -4.2857 -4.2857h -291.4286 c -2.3669,-0.0000 -4.2857,1.9188 -4.2857 4.2857v 291.4286 c -0.0000,2.3669 1.9188,4.2857 4.2857 4.2857h 291.4286 c 2.3669,0.0000 4.2857,-1.9188 4.2857 -4.2857Z"/></g><g stroke-linejoin="miter" fill-opacity="1.0" fill="rgb(255,0,0)" stroke="rgb(0,0,0)" stroke-linecap="butt" stroke-miterlimit="10.0" stroke-opacity="1.0" stroke-width="0.0"><path d="M 278.5714,150.0000 c 0.0000,-71.0080 -57.5634,-128.5714 -128.5714 -128.5714c -71.0080,-0.0000 -128.5714,57.5634 -128.5714 128.5714c -0.0000,71.0080 57.5634,128.5714 128.5714 128.5714c 71.0080,0.0000 128.5714,-57.5634 128.5714 -128.5714Z"/></g><g stroke-linejoin="miter" fill-opacity="1.0" fill="rgb(255,255,255)" stroke="rgb(0,0,0)" stroke-linecap="butt" stroke-miterlimit="10.0" stroke-opacity="1.0" stroke-width="0.0"><path d="M 235.7143,150.0000 c 0.0000,-47.3387 -38.3756,-85.7143 -85.7143 -85.7143c -47.3387,-0.0000 -85.7143,38.3756 -85.7143 85.7143c -0.0000,47.3387 38.3756,85.7143 85.7143 85.7143c 47.3387,0.0000 85.7143,-38.3756 85.7143 -85.7143Z"/></g><g stroke-linejoin="miter" fill-opacity="1.0" fill="rgb(255,0,0)" stroke="rgb(0,0,0)" stroke-linecap="butt" stroke-miterlimit="10.0" stroke-opacity="1.0" stroke-width="0.0"><path d="M 192.8571,150.0000 c 0.0000,-23.6693 -19.1878,-42.8571 -42.8571 -42.8571c -23.6693,-0.0000 -42.8571,19.1878 -42.8571 42.8571c -0.0000,23.6693 19.1878,42.8571 42.8571 42.8571c 23.6693,0.0000 42.8571,-19.1878 42.8571 -42.8571Z"/></g></svg>
